<svg xmlns="http://www.w3.org/2000/svg" version="1.1" xmlns:xlink="http://www.w3.org/1999/xlink" xmlns:svgjs="http://svgjs.dev/svgjs" viewBox="0 0 1422 800"><circle r="17" cx="714" cy="223" fill="hsl(213, 50%, 50%)" opacity="0.24"></circle><circle r="9.5" cx="1155" cy="777" stroke-width="2" stroke="hsl(85, 50%, 50%)" fill="none" opacity="0.39"></circle><circle r="12.5" cx="1249" cy="246" stroke-width="2" stroke="hsl(58, 50%, 50%)" fill="none" opacity="0.82"></circle><circle r="17.5" cx="26" cy="160" fill="hsl(189, 50%, 50%)" opacity="0.44"></circle><circle r="17" cx="88" cy="484" fill="hsl(174, 50%, 50%)" opacity="0.66"></circle><circle r="17.5" cx="1019" cy="125" fill="hsl(148, 50%, 50%)" opacity="0.15"></circle><circle r="9" cx="1396" cy="637" fill="hsl(50, 50%, 50%)" opacity="0.80"></circle><circle r="17.5" cx="464" cy="296" stroke-width="2" stroke="hsl(166, 50%, 50%)" fill="none" opacity="0.23"></circle><circle r="14.5" cx="981" cy="605" fill="hsl(143, 50%, 50%)" opacity="0.21"></circle><circle r="17" cx="503" cy="628" fill="hsl(182, 50%, 50%)" opacity="0.15"></circle><circle r="14" cx="228" cy="379" stroke-width="2" stroke="hsl(123, 50%, 50%)" fill="none" opacity="0.60"></circle><circle r="14" cx="1122" cy="229" fill="hsl(92, 50%, 50%)" opacity="0.93"></circle><circle r="16.5" cx="42" cy="621" fill="hsl(195, 50%, 50%)" opacity="0.84"></circle><circle r="18.5" cx="582" cy="536" stroke-width="2" stroke="hsl(206, 50%, 50%)" fill="none" opacity="0.31"></circle><circle r="11" cx="1327" cy="341" fill="hsl(50, 50%, 50%)" opacity="0.56"></circle><circle r="12" cx="1193" cy="270" fill="hsl(72, 50%, 50%)" opacity="0.65"></circle><circle r="16.5" cx="365" cy="228" stroke-width="2" stroke="hsl(136, 50%, 50%)" fill="none" opacity="0.89"></circle><circle r="15.5" cx="28" cy="776" fill="hsl(195, 50%, 50%)" opacity="0.61"></circle><circle r="20" cx="757" cy="599" stroke-width="2" stroke="hsl(209, 50%, 50%)" fill="none" opacity="0.52"></circle><circle r="18" cx="537" cy="143" stroke-width="2" stroke="hsl(188, 50%, 50%)" fill="none" opacity="0.74"></circle><circle r="15.5" cx="371" cy="603" stroke-width="2" stroke="hsl(136, 50%, 50%)" fill="none" opacity="0.46"></circle><circle r="22.5" cx="812" cy="105" fill="hsl(210, 50%, 50%)" opacity="0.76"></circle><circle r="11" cx="1391" cy="438" stroke-width="2" stroke="hsl(50, 50%, 50%)" fill="none" opacity="0.41"></circle><circle r="12" cx="1197" cy="28" stroke-width="2" stroke="hsl(92, 50%, 50%)" fill="none" opacity="0.56"></circle><circle r="11.5" cx="1248" cy="179" stroke-width="2" stroke="hsl(58, 50%, 50%)" fill="none" opacity="0.25"></circle><circle r="17.5" cx="967" cy="81" stroke-width="2" stroke="hsl(175, 50%, 50%)" fill="none" opacity="0.25"></circle><circle r="9" cx="1309" cy="25" stroke-width="2" stroke="hsl(56, 50%, 50%)" fill="none" opacity="0.39"></circle><circle r="17" cx="763" cy="35" fill="hsl(212, 50%, 50%)" opacity="0.93"></circle><circle r="13.5" cx="1135" cy="297" fill="hsl(85, 50%, 50%)" opacity="0.44"></circle><circle r="14" cx="342" cy="481" fill="hsl(130, 50%, 50%)" opacity="0.70"></circle><circle r="15" cx="338" cy="407" fill="hsl(130, 50%, 50%)" opacity="0.32"></circle><circle r="13" cx="1049" cy="700" fill="hsl(117, 50%, 50%)" opacity="0.47"></circle><circle r="13.5" cx="1054" cy="208" stroke-width="2" stroke="hsl(117, 50%, 50%)" fill="none" opacity="0.38"></circle><circle r="17" cx="475" cy="179" stroke-width="2" stroke="hsl(174, 50%, 50%)" fill="none" opacity="0.66"></circle><circle r="18.5" cx="760" cy="159" stroke-width="2" stroke="hsl(211, 50%, 50%)" fill="none" opacity="0.25"></circle><circle r="14.5" cx="326" cy="324" fill="hsl(126, 50%, 50%)" opacity="0.44"></circle><circle r="11.5" cx="1132" cy="419" stroke-width="2" stroke="hsl(92, 50%, 50%)" fill="none" opacity="0.45"></circle><circle r="11" cx="1311" cy="279" stroke-width="2" stroke="hsl(50, 50%, 50%)" fill="none" opacity="0.40"></circle><circle r="14.5" cx="182" cy="708" fill="hsl(132, 50%, 50%)" opacity="0.73"></circle><circle r="18" cx="155" cy="540" stroke-width="2" stroke="hsl(146, 50%, 50%)" fill="none" opacity="0.21"></circle><circle r="18" cx="704" cy="157" fill="hsl(214, 50%, 50%)" opacity="0.70"></circle><circle r="19.5" cx="767" cy="659" stroke-width="2" stroke="hsl(209, 50%, 50%)" fill="none" opacity="0.10"></circle><circle r="15" cx="264" cy="317" stroke-width="2" stroke="hsl(122, 50%, 50%)" fill="none" opacity="0.82"></circle><circle r="15.5" cx="637" cy="170" fill="hsl(210, 50%, 50%)" opacity="0.47"></circle><circle r="17.5" cx="435" cy="613" fill="hsl(158, 50%, 50%)" opacity="0.33"></circle><circle r="14.5" cx="1003" cy="240" fill="hsl(134, 50%, 50%)" opacity="0.36"></circle><circle r="18" cx="452" cy="411" stroke-width="2" stroke="hsl(166, 50%, 50%)" fill="none" opacity="0.81"></circle><circle r="15" cx="174" cy="360" fill="hsl(138, 50%, 50%)" opacity="0.38"></circle><circle r="16" cx="504" cy="726" fill="hsl(182, 50%, 50%)" opacity="0.54"></circle><circle r="22" cx="715" cy="706" fill="hsl(213, 50%, 50%)" opacity="0.63"></circle><circle r="14.5" cx="192" cy="205" stroke-width="2" stroke="hsl(132, 50%, 50%)" fill="none" opacity="0.31"></circle><circle r="14.5" cx="374" cy="358" fill="hsl(136, 50%, 50%)" opacity="0.74"></circle><circle r="13.5" cx="196" cy="438" stroke-width="2" stroke="hsl(132, 50%, 50%)" fill="none" opacity="0.59"></circle><circle r="15.5" cx="439" cy="132" fill="hsl(137, 50%, 50%)" opacity="0.74"></circle><circle r="14" cx="498" cy="111" fill="hsl(162, 50%, 50%)" opacity="0.58"></circle><circle r="18" cx="940" cy="251" fill="hsl(160, 50%, 50%)" opacity="0.34"></circle><circle r="17.5" cx="431" cy="350" stroke-width="2" stroke="hsl(158, 50%, 50%)" fill="none" opacity="0.31"></circle><circle r="15.5" cx="1063" cy="277" fill="hsl(117, 50%, 50%)" opacity="0.29"></circle><circle r="19" cx="690" cy="646" fill="hsl(214, 50%, 50%)" opacity="0.84"></circle><circle r="17.5" cx="674" cy="387" stroke-width="2" stroke="hsl(214, 50%, 50%)" fill="none" opacity="0.20"></circle><circle r="11" cx="1232" cy="565" stroke-width="2" stroke="hsl(62, 50%, 50%)" fill="none" opacity="0.30"></circle><circle r="15" cx="305" cy="581" fill="hsl(123, 50%, 50%)" opacity="0.57"></circle><circle r="18.5" cx="89" cy="260" fill="hsl(164, 50%, 50%)" opacity="0.29"></circle><circle r="16" cx="945" cy="326" stroke-width="2" stroke="hsl(160, 50%, 50%)" fill="none" opacity="0.19"></circle><circle r="19.5" cx="712" cy="431" fill="hsl(213, 50%, 50%)" opacity="0.23"></circle><circle r="14" cx="1049" cy="586" stroke-width="2" stroke="hsl(117, 50%, 50%)" fill="none" opacity="0.21"></circle><circle r="17" cx="22" cy="672" stroke-width="2" stroke="hsl(195, 50%, 50%)" fill="none" opacity="0.66"></circle><circle r="14.5" cx="966" cy="774" stroke-width="2" stroke="hsl(152, 50%, 50%)" fill="none" opacity="0.21"></circle><circle r="16" cx="610" cy="29" fill="hsl(193, 50%, 50%)" opacity="0.33"></circle><circle r="12" cx="249" cy="448" fill="hsl(122, 50%, 50%)" opacity="0.27"></circle><circle r="21.5" cx="639" cy="688" stroke-width="2" stroke="hsl(212, 50%, 50%)" fill="none" opacity="0.91"></circle><circle r="18" cx="547" cy="772" stroke-width="2" stroke="hsl(195, 50%, 50%)" fill="none" opacity="0.18"></circle><circle r="12.5" cx="207" cy="763" fill="hsl(127, 50%, 50%)" opacity="0.76"></circle><circle r="12.5" cx="379" cy="108" stroke-width="2" stroke="hsl(111, 50%, 50%)" fill="none" opacity="0.71"></circle><circle r="18" cx="591" cy="241" fill="hsl(206, 50%, 50%)" opacity="0.91"></circle><circle r="11" cx="1289" cy="130" fill="hsl(48, 50%, 50%)" opacity="0.34"></circle><circle r="19.5" cx="867" cy="146" fill="hsl(191, 50%, 50%)" opacity="0.48"></circle><circle r="14" cx="203" cy="311" stroke-width="2" stroke="hsl(127, 50%, 50%)" fill="none" opacity="0.16"></circle><circle r="13.5" cx="1102" cy="473" stroke-width="2" stroke="hsl(100, 50%, 50%)" fill="none" opacity="0.57"></circle><circle r="19" cx="29" cy="227" fill="hsl(195, 50%, 50%)" opacity="0.18"></circle><circle r="14.5" cx="145" cy="150" stroke-width="2" stroke="hsl(128, 50%, 50%)" fill="none" opacity="0.68"></circle><circle r="10.5" cx="1349" cy="161" fill="hsl(46, 50%, 50%)" opacity="0.39"></circle><circle r="10.5" cx="229" cy="94" stroke-width="2" stroke="hsl(84, 50%, 50%)" fill="none" opacity="0.28"></circle><circle r="15.5" cx="308" cy="262" fill="hsl(123, 50%, 50%)" opacity="0.18"></circle><circle r="12.5" cx="1243" cy="470" stroke-width="2" stroke="hsl(62, 50%, 50%)" fill="none" opacity="0.63"></circle><circle r="20" cx="579" cy="644" stroke-width="2" stroke="hsl(206, 50%, 50%)" fill="none" opacity="0.72"></circle><circle r="14.5" cx="1070" cy="402" fill="hsl(108, 50%, 50%)" opacity="0.20"></circle><circle r="18" cx="770" cy="537" fill="hsl(209, 50%, 50%)" opacity="0.28"></circle><circle r="20.5" cx="1022" cy="36" stroke-width="2" stroke="hsl(165, 50%, 50%)" fill="none" opacity="0.18"></circle><circle r="17.5" cx="430" cy="233" fill="hsl(158, 50%, 50%)" opacity="0.64"></circle><circle r="15" cx="397" cy="662" fill="hsl(142, 50%, 50%)" opacity="0.22"></circle><circle r="18.5" cx="552" cy="585" fill="hsl(195, 50%, 50%)" opacity="0.31"></circle><circle r="15" cx="134" cy="306" fill="hsl(146, 50%, 50%)" opacity="0.88"></circle><circle r="15.5" cx="145" cy="413" fill="hsl(146, 50%, 50%)" opacity="0.85"></circle><circle r="20" cx="614" cy="767" stroke-width="2" stroke="hsl(209, 50%, 50%)" fill="none" opacity="0.22"></circle><circle r="19" cx="614" cy="482" stroke-width="2" stroke="hsl(209, 50%, 50%)" fill="none" opacity="0.68"></circle><circle r="14.5" cx="416" cy="773" fill="hsl(150, 50%, 50%)" opacity="0.81"></circle><circle r="11.5" cx="1388" cy="36" fill="hsl(42, 50%, 50%)" opacity="0.31"></circle><circle r="12.5" cx="257" cy="768" fill="hsl(122, 50%, 50%)" opacity="0.14"></circle><circle r="10.5" cx="1327" cy="716" fill="hsl(50, 50%, 50%)" opacity="0.43"></circle><circle r="15" cx="437" cy="722" fill="hsl(158, 50%, 50%)" opacity="0.91"></circle><circle r="14" cx="286" cy="381" fill="hsl(121, 50%, 50%)" opacity="0.57"></circle><circle r="13" cx="298" cy="451" stroke-width="2" stroke="hsl(123, 50%, 50%)" fill="none" opacity="0.72"></circle><circle r="15" cx="447" cy="482" stroke-width="2" stroke="hsl(166, 50%, 50%)" fill="none" opacity="0.15"></circle><circle r="11" cx="1316" cy="216" stroke-width="2" stroke="hsl(50, 50%, 50%)" fill="none" opacity="0.53"></circle><circle r="19" cx="767" cy="219" stroke-width="2" stroke="hsl(209, 50%, 50%)" fill="none" opacity="0.99"></circle><circle r="19" cx="576" cy="417" fill="hsl(201, 50%, 50%)" opacity="0.99"></circle><circle r="17" cx="870" cy="212" stroke-width="2" stroke="hsl(184, 50%, 50%)" fill="none" opacity="0.21"></circle><circle r="12" cx="376" cy="28" stroke-width="2" stroke="hsl(83, 50%, 50%)" fill="none" opacity="0.20"></circle><circle r="14" cx="253" cy="206" stroke-width="2" stroke="hsl(122, 50%, 50%)" fill="none" opacity="0.51"></circle><circle r="20.5" cx="580" cy="714" fill="hsl(206, 50%, 50%)" opacity="0.51"></circle><circle r="19" cx="28" cy="440" fill="hsl(195, 50%, 50%)" opacity="0.24"></circle><circle r="16" cx="484" cy="574" stroke-width="2" stroke="hsl(174, 50%, 50%)" fill="none" opacity="0.37"></circle><circle r="17.5" cx="30" cy="568" stroke-width="2" stroke="hsl(195, 50%, 50%)" fill="none" opacity="0.73"></circle><circle r="13.5" cx="1214" cy="114" stroke-width="2" stroke="hsl(67, 50%, 50%)" fill="none" opacity="0.53"></circle><circle r="21.5" cx="679" cy="483" fill="hsl(214, 50%, 50%)" opacity="0.49"></circle><circle r="11.5" cx="1231" cy="636" stroke-width="2" stroke="hsl(62, 50%, 50%)" fill="none" opacity="0.24"></circle><circle r="13.5" cx="1101" cy="27" fill="hsl(128, 50%, 50%)" opacity="0.35"></circle><circle r="19" cx="931" cy="528" stroke-width="2" stroke="hsl(169, 50%, 50%)" fill="none" opacity="0.77"></circle><circle r="16" cx="36" cy="726" fill="hsl(195, 50%, 50%)" opacity="0.77"></circle><circle r="10" cx="1232" cy="773" stroke-width="2" stroke="hsl(62, 50%, 50%)" fill="none" opacity="0.75"></circle><circle r="11" cx="21" cy="85" fill="hsl(164, 50%, 50%)" opacity="0.45"></circle><circle r="14.5" cx="361" cy="771" fill="hsl(136, 50%, 50%)" opacity="0.33"></circle><circle r="13.5" cx="1092" cy="759" stroke-width="2" stroke="hsl(100, 50%, 50%)" fill="none" opacity="0.96"></circle><circle r="17" cx="929" cy="724" fill="hsl(169, 50%, 50%)" opacity="0.89"></circle><circle r="18" cx="932" cy="659" stroke-width="2" stroke="hsl(169, 50%, 50%)" fill="none" opacity="0.85"></circle><circle r="13.5" cx="52" cy="112" stroke-width="2" stroke="hsl(161, 50%, 50%)" fill="none" opacity="0.72"></circle><circle r="10.5" cx="1303" cy="770" stroke-width="2" stroke="hsl(52, 50%, 50%)" fill="none" opacity="0.38"></circle><circle r="16" cx="891" cy="334" stroke-width="2" stroke="hsl(176, 50%, 50%)" fill="none" opacity="0.53"></circle><circle r="11" cx="1337" cy="405" fill="hsl(50, 50%, 50%)" opacity="0.51"></circle><circle r="22" cx="747" cy="767" fill="hsl(212, 50%, 50%)" opacity="0.46"></circle><circle r="17.5" cx="586" cy="186" fill="hsl(206, 50%, 50%)" opacity="0.63"></circle><circle r="9.5" cx="1341" cy="644" fill="hsl(50, 50%, 50%)" opacity="0.58"></circle><circle r="18.5" cx="496" cy="352" fill="hsl(182, 50%, 50%)" opacity="0.41"></circle><circle r="11" cx="1391" cy="702" stroke-width="2" stroke="hsl(50, 50%, 50%)" fill="none" opacity="0.39"></circle><circle r="10.5" cx="1385" cy="576" fill="hsl(50, 50%, 50%)" opacity="0.57"></circle><circle r="11" cx="1276" cy="527" stroke-width="2" stroke="hsl(55, 50%, 50%)" fill="none" opacity="0.36"></circle><circle r="18" cx="27" cy="292" stroke-width="2" stroke="hsl(195, 50%, 50%)" fill="none" opacity="0.24"></circle><circle r="16" cx="113" cy="364" stroke-width="2" stroke="hsl(154, 50%, 50%)" fill="none" opacity="0.80"></circle><circle r="11" cx="1191" cy="727" stroke-width="2" stroke="hsl(72, 50%, 50%)" fill="none" opacity="0.58"></circle><circle r="17.5" cx="559" cy="80" fill="hsl(185, 50%, 50%)" opacity="0.17"></circle><circle r="18.5" cx="593" cy="302" stroke-width="2" stroke="hsl(206, 50%, 50%)" fill="none" opacity="0.74"></circle><circle r="23.5" cx="676" cy="763" stroke-width="2" stroke="hsl(214, 50%, 50%)" fill="none" opacity="0.84"></circle><circle r="15" cx="139" cy="668" fill="hsl(146, 50%, 50%)" opacity="0.53"></circle><circle r="10.5" cx="1285" cy="667" stroke-width="2" stroke="hsl(55, 50%, 50%)" fill="none" opacity="0.73"></circle><circle r="15.5" cx="981" cy="698" stroke-width="2" stroke="hsl(143, 50%, 50%)" fill="none" opacity="0.91"></circle><circle r="17" cx="925" cy="597" stroke-width="2" stroke="hsl(169, 50%, 50%)" fill="none" opacity="0.32"></circle><circle r="15" cx="258" cy="701" stroke-width="2" stroke="hsl(122, 50%, 50%)" fill="none" opacity="0.77"></circle><circle r="15" cx="268" cy="630" stroke-width="2" stroke="hsl(121, 50%, 50%)" fill="none" opacity="0.47"></circle><circle r="10.5" cx="1335" cy="538" fill="hsl(50, 50%, 50%)" opacity="1.00"></circle><circle r="21.5" cx="647" cy="541" fill="hsl(214, 50%, 50%)" opacity="0.38"></circle><circle r="13.5" cx="1012" cy="648" fill="hsl(134, 50%, 50%)" opacity="0.12"></circle><circle r="16.5" cx="112" cy="614" fill="hsl(154, 50%, 50%)" opacity="0.63"></circle><circle r="18.5" cx="884" cy="85" stroke-width="2" stroke="hsl(201, 50%, 50%)" fill="none" opacity="0.56"></circle><circle r="14.5" cx="993" cy="295" fill="hsl(143, 50%, 50%)" opacity="0.19"></circle><circle r="13" cx="1257" cy="326" stroke-width="2" stroke="hsl(58, 50%, 50%)" fill="none" opacity="0.17"></circle><circle r="18.5" cx="701" cy="279" fill="hsl(214, 50%, 50%)" opacity="0.71"></circle><circle r="17.5" cx="771" cy="275" stroke-width="2" stroke="hsl(209, 50%, 50%)" fill="none" opacity="0.82"></circle><circle r="17" cx="529" cy="678" stroke-width="2" stroke="hsl(189, 50%, 50%)" fill="none" opacity="0.61"></circle><circle r="13.5" cx="331" cy="142" fill="hsl(107, 50%, 50%)" opacity="0.24"></circle><circle r="11.5" cx="1173" cy="462" stroke-width="2" stroke="hsl(78, 50%, 50%)" fill="none" opacity="0.60"></circle><circle r="15" cx="1019" cy="431" fill="hsl(134, 50%, 50%)" opacity="0.60"></circle><circle r="10" cx="1246" cy="710" fill="hsl(58, 50%, 50%)" opacity="0.98"></circle><circle r="10.5" cx="1392" cy="212" fill="hsl(50, 50%, 50%)" opacity="0.34"></circle><circle r="9" cx="1395" cy="119" fill="hsl(42, 50%, 50%)" opacity="0.90"></circle><circle r="18" cx="594" cy="130" fill="hsl(198, 50%, 50%)" opacity="0.32"></circle><circle r="11" cx="1390" cy="505" fill="hsl(50, 50%, 50%)" opacity="0.23"></circle><circle r="10" cx="1393" cy="361" stroke-width="2" stroke="hsl(50, 50%, 50%)" fill="none" opacity="0.39"></circle><circle r="9.5" cx="304" cy="25" fill="hsl(61, 50%, 50%)" opacity="0.75"></circle><circle r="17.5" cx="428" cy="548" fill="hsl(158, 50%, 50%)" opacity="0.25"></circle><circle r="18" cx="823" cy="246" fill="hsl(196, 50%, 50%)" opacity="0.37"></circle><circle r="19.5" cx="820" cy="770" fill="hsl(201, 50%, 50%)" opacity="0.52"></circle><circle r="13" cx="419" cy="74" stroke-width="2" stroke="hsl(114, 50%, 50%)" fill="none" opacity="0.69"></circle><circle r="14.5" cx="316" cy="716" fill="hsl(126, 50%, 50%)" opacity="0.19"></circle><circle r="11.5" cx="1257" cy="57" stroke-width="2" stroke="hsl(64, 50%, 50%)" fill="none" opacity="0.89"></circle><circle r="12" cx="1197" cy="339" fill="hsl(72, 50%, 50%)" opacity="0.96"></circle><circle r="19" cx="814" cy="178" stroke-width="2" stroke="hsl(204, 50%, 50%)" fill="none" opacity="0.78"></circle><circle r="11.5" cx="1135" cy="541" fill="hsl(85, 50%, 50%)" opacity="0.23"></circle><circle r="17" cx="849" cy="371" stroke-width="2" stroke="hsl(190, 50%, 50%)" fill="none" opacity="0.74"></circle><circle r="16.5" cx="496" cy="465" fill="hsl(182, 50%, 50%)" opacity="0.55"></circle><circle r="19" cx="713" cy="537" fill="hsl(213, 50%, 50%)" opacity="0.41"></circle><circle r="17" cx="660" cy="124" stroke-width="2" stroke="hsl(210, 50%, 50%)" fill="none" opacity="0.12"></circle><circle r="16" cx="997" cy="547" fill="hsl(143, 50%, 50%)" opacity="0.47"></circle><circle r="19" cx="613" cy="372" fill="hsl(209, 50%, 50%)" opacity="0.81"></circle><circle r="20" cx="742" cy="482" stroke-width="2" stroke="hsl(212, 50%, 50%)" fill="none" opacity="0.18"></circle><circle r="11" cx="1336" cy="84" stroke-width="2" stroke="hsl(44, 50%, 50%)" fill="none" opacity="0.45"></circle><circle r="17.5" cx="924" cy="190" stroke-width="2" stroke="hsl(169, 50%, 50%)" fill="none" opacity="0.25"></circle><circle r="14.5" cx="1041" cy="490" stroke-width="2" stroke="hsl(125, 50%, 50%)" fill="none" opacity="0.15"></circle><circle r="12" cx="66" cy="30" stroke-width="2" stroke="hsl(115, 50%, 50%)" fill="none" opacity="0.34"></circle><circle r="20.5" cx="749" cy="99" fill="hsl(215, 50%, 50%)" opacity="0.63"></circle><circle r="14" cx="92" cy="139" fill="hsl(148, 50%, 50%)" opacity="0.91"></circle><circle r="17" cx="176" cy="606" fill="hsl(138, 50%, 50%)" opacity="0.88"></circle><circle r="13" cx="1078" cy="537" stroke-width="2" stroke="hsl(108, 50%, 50%)" fill="none" opacity="0.58"></circle><circle r="11.5" cx="1318" cy="469" fill="hsl(50, 50%, 50%)" opacity="0.12"></circle><circle r="17" cx="231" cy="571" stroke-width="2" stroke="hsl(123, 50%, 50%)" fill="none" opacity="0.74"></circle><circle r="17" cx="857" cy="509" fill="hsl(190, 50%, 50%)" opacity="0.37"></circle><circle r="12.5" cx="474" cy="70" stroke-width="2" stroke="hsl(147, 50%, 50%)" fill="none" opacity="0.59"></circle><circle r="17.5" cx="78" cy="676" fill="hsl(174, 50%, 50%)" opacity="0.25"></circle><circle r="11.5" cx="1189" cy="518" fill="hsl(72, 50%, 50%)" opacity="0.10"></circle><circle r="16.5" cx="74" cy="325" stroke-width="2" stroke="hsl(174, 50%, 50%)" fill="none" opacity="0.62"></circle><circle r="16" cx="356" cy="543" fill="hsl(136, 50%, 50%)" opacity="0.26"></circle><circle r="11" cx="237" cy="30" fill="hsl(55, 50%, 50%)" opacity="0.35"></circle><circle r="16.5" cx="660" cy="30" stroke-width="2" stroke="hsl(203, 50%, 50%)" fill="none" opacity="0.87"></circle><circle r="10.5" cx="119" cy="26" fill="hsl(82, 50%, 50%)" opacity="0.44"></circle><circle r="14.5" cx="375" cy="714" fill="hsl(136, 50%, 50%)" opacity="0.52"></circle><circle r="18" cx="388" cy="290" fill="hsl(142, 50%, 50%)" opacity="0.80"></circle><circle r="14.5" cx="313" cy="198" fill="hsl(126, 50%, 50%)" opacity="0.67"></circle><circle r="16" cx="660" cy="212" stroke-width="2" stroke="hsl(214, 50%, 50%)" fill="none" opacity="0.96"></circle><circle r="19" cx="554" cy="475" fill="hsl(195, 50%, 50%)" opacity="0.99"></circle><circle r="15.5" cx="394" cy="427" stroke-width="2" stroke="hsl(142, 50%, 50%)" fill="none" opacity="1.00"></circle><circle r="16.5" cx="282" cy="518" stroke-width="2" stroke="hsl(121, 50%, 50%)" fill="none" opacity="0.66"></circle><circle r="18" cx="694" cy="82" fill="hsl(212, 50%, 50%)" opacity="0.93"></circle><circle r="17" cx="145" cy="474" fill="hsl(146, 50%, 50%)" opacity="0.97"></circle><circle r="13.5" cx="236" cy="260" fill="hsl(123, 50%, 50%)" opacity="0.30"></circle><circle r="11" cx="1104" cy="681" stroke-width="2" stroke="hsl(100, 50%, 50%)" fill="none" opacity="0.52"></circle><circle r="12.5" cx="1385" cy="285" fill="hsl(50, 50%, 50%)" opacity="0.98"></circle><circle r="19" cx="866" cy="712" fill="hsl(190, 50%, 50%)" opacity="0.99"></circle><circle r="13" cx="1170" cy="663" fill="hsl(78, 50%, 50%)" opacity="0.72"></circle><circle r="15" cx="562" cy="25" stroke-width="2" stroke="hsl(179, 50%, 50%)" fill="none" opacity="0.67"></circle><circle r="11" cx="176" cy="29" fill="hsl(66, 50%, 50%)" opacity="0.93"></circle><circle r="16.5" cx="899" cy="470" fill="hsl(176, 50%, 50%)" opacity="0.52"></circle><circle r="18.5" cx="93" cy="555" fill="hsl(164, 50%, 50%)" opacity="0.16"></circle><circle r="19" cx="740" cy="379" fill="hsl(212, 50%, 50%)" opacity="0.10"></circle><circle r="14.5" cx="511" cy="32" stroke-width="2" stroke="hsl(150, 50%, 50%)" fill="none" opacity="0.88"></circle><circle r="15.5" cx="949" cy="441" stroke-width="2" stroke="hsl(160, 50%, 50%)" fill="none" opacity="0.62"></circle><circle r="12" cx="1179" cy="595" fill="hsl(72, 50%, 50%)" opacity="0.22"></circle><circle r="12.5" cx="1016" cy="743" fill="hsl(134, 50%, 50%)" opacity="0.25"></circle><circle r="18" cx="908" cy="396" fill="hsl(176, 50%, 50%)" opacity="0.82"></circle><circle r="16" cx="111" cy="725" fill="hsl(164, 50%, 50%)" opacity="0.48"></circle><circle r="11.5" cx="335" cy="75" stroke-width="2" stroke="hsl(87, 50%, 50%)" fill="none" opacity="0.89"></circle><circle r="15.5" cx="328" cy="654" fill="hsl(126, 50%, 50%)" opacity="0.28"></circle><circle r="12" cx="88" cy="77" fill="hsl(128, 50%, 50%)" opacity="0.51"></circle><circle r="11" cx="446" cy="22" stroke-width="2" stroke="hsl(127, 50%, 50%)" fill="none" opacity="0.19"></circle><circle r="16.5" cx="878" cy="570" fill="hsl(184, 50%, 50%)" opacity="0.52"></circle><circle r="16.5" cx="695" cy="339" fill="hsl(214, 50%, 50%)" opacity="0.84"></circle><circle r="19.5" cx="31" cy="508" fill="hsl(195, 50%, 50%)" opacity="0.45"></circle><circle r="13" cx="205" cy="150" fill="hsl(108, 50%, 50%)" opacity="0.36"></circle><circle r="13" cx="1119" cy="607" fill="hsl(92, 50%, 50%)" opacity="0.62"></circle><circle r="18.5" cx="693" cy="591" stroke-width="2" stroke="hsl(214, 50%, 50%)" fill="none" opacity="0.63"></circle><circle r="19" cx="819" cy="559" stroke-width="2" stroke="hsl(201, 50%, 50%)" fill="none" opacity="0.36"></circle><circle r="13" cx="307" cy="772" stroke-width="2" stroke="hsl(123, 50%, 50%)" fill="none" opacity="0.74"></circle><circle r="17" cx="789" cy="336" fill="hsl(206, 50%, 50%)" opacity="0.49"></circle><circle r="20.5" cx="625" cy="604" stroke-width="2" stroke="hsl(212, 50%, 50%)" fill="none" opacity="0.40"></circle><circle r="17.5" cx="626" cy="82" fill="hsl(203, 50%, 50%)" opacity="0.30"></circle><circle r="16" cx="799" cy="388" fill="hsl(206, 50%, 50%)" opacity="0.59"></circle><circle r="11.5" cx="1141" cy="365" stroke-width="2" stroke="hsl(85, 50%, 50%)" fill="none" opacity="0.40"></circle><circle r="18" cx="805" cy="485" stroke-width="2" stroke="hsl(201, 50%, 50%)" fill="none" opacity="0.78"></circle><circle r="19.5" cx="29" cy="367" stroke-width="2" stroke="hsl(195, 50%, 50%)" fill="none" opacity="0.96"></circle><circle r="15" cx="213" cy="655" fill="hsl(127, 50%, 50%)" opacity="0.68"></circle><circle r="19" cx="834" cy="307" stroke-width="2" stroke="hsl(196, 50%, 50%)" fill="none" opacity="0.66"></circle><circle r="15" cx="478" cy="774" stroke-width="2" stroke="hsl(174, 50%, 50%)" fill="none" opacity="0.80"></circle><circle r="11.5" cx="1296" cy="596" fill="hsl(52, 50%, 50%)" opacity="0.78"></circle><circle r="18" cx="516" cy="411" fill="hsl(189, 50%, 50%)" opacity="0.84"></circle><circle r="17" cx="740" cy="318" fill="hsl(212, 50%, 50%)" opacity="0.53"></circle><circle r="17.5" cx="491" cy="242" fill="hsl(182, 50%, 50%)" opacity="0.70"></circle><circle r="14.5" cx="1148" cy="138" stroke-width="2" stroke="hsl(88, 50%, 50%)" fill="none" opacity="0.32"></circle><circle r="16.5" cx="974" cy="384" stroke-width="2" stroke="hsl(152, 50%, 50%)" fill="none" opacity="0.40"></circle><circle r="18.5" cx="641" cy="431" fill="hsl(212, 50%, 50%)" opacity="0.51"></circle><circle r="16" cx="892" cy="773" fill="hsl(176, 50%, 50%)" opacity="0.88"></circle><circle r="17" cx="778" cy="434" fill="hsl(209, 50%, 50%)" opacity="0.90"></circle><circle r="11" cx="1136" cy="720" stroke-width="2" stroke="hsl(85, 50%, 50%)" fill="none" opacity="0.76"></circle><circle r="18" cx="535" cy="207" stroke-width="2" stroke="hsl(195, 50%, 50%)" fill="none" opacity="0.98"></circle><circle r="15.5" cx="395" cy="174" fill="hsl(134, 50%, 50%)" opacity="0.11"></circle><circle r="17.5" cx="646" cy="324" fill="hsl(214, 50%, 50%)" opacity="0.62"></circle><circle r="15.5" cx="87" cy="774" stroke-width="2" stroke="hsl(174, 50%, 50%)" fill="none" opacity="0.56"></circle><circle r="15" cx="1023" cy="348" stroke-width="2" stroke="hsl(125, 50%, 50%)" fill="none" opacity="0.30"></circle><circle r="16.5" cx="462" cy="673" stroke-width="2" stroke="hsl(166, 50%, 50%)" fill="none" opacity="0.41"></circle><circle r="19" cx="848" cy="435" stroke-width="2" stroke="hsl(190, 50%, 50%)" fill="none" opacity="0.47"></circle><circle r="16.5" cx="79" cy="195" stroke-width="2" stroke="hsl(174, 50%, 50%)" fill="none" opacity="0.35"></circle><circle r="15" cx="167" cy="260" fill="hsl(138, 50%, 50%)" opacity="0.12"></circle><circle r="10.5" cx="281" cy="86" fill="hsl(73, 50%, 50%)" opacity="0.23"></circle><circle r="10" cx="1043" cy="780" stroke-width="2" stroke="hsl(125, 50%, 50%)" fill="none" opacity="0.52"></circle><circle r="19" cx="867" cy="651" stroke-width="2" stroke="hsl(184, 50%, 50%)" fill="none" opacity="0.34"></circle><circle r="16.5" cx="132" cy="212" fill="hsl(154, 50%, 50%)" opacity="0.62"></circle><circle r="19.5" cx="555" cy="350" stroke-width="2" stroke="hsl(195, 50%, 50%)" fill="none" opacity="0.96"></circle><circle r="11.5" cx="1272" cy="401" fill="hsl(55, 50%, 50%)" opacity="0.12"></circle><circle r="15" cx="980" cy="488" stroke-width="2" stroke="hsl(143, 50%, 50%)" fill="none" opacity="0.59"></circle><circle r="14" cx="395" cy="493" fill="hsl(142, 50%, 50%)" opacity="0.69"></circle><circle r="16.5" cx="988" cy="181" fill="hsl(143, 50%, 50%)" opacity="0.60"></circle><circle r="14.5" cx="1084" cy="338" stroke-width="2" stroke="hsl(108, 50%, 50%)" fill="none" opacity="0.71"></circle><circle r="17" cx="936" cy="131" fill="hsl(174, 50%, 50%)" opacity="0.91"></circle><circle r="18" cx="874" cy="28" stroke-width="2" stroke="hsl(203, 50%, 50%)" fill="none" opacity="0.53"></circle><circle r="17.5" cx="885" cy="274" fill="hsl(184, 50%, 50%)" opacity="0.12"></circle><circle r="18" cx="81" cy="413" fill="hsl(174, 50%, 50%)" opacity="0.33"></circle><circle r="11.5" cx="22" cy="28" fill="hsl(140, 50%, 50%)" opacity="0.13"></circle><circle r="11" cx="1384" cy="769" stroke-width="2" stroke="hsl(50, 50%, 50%)" fill="none" opacity="0.65"></circle><circle r="10" cx="181" cy="90" stroke-width="2" stroke="hsl(92, 50%, 50%)" fill="none" opacity="0.55"></circle><circle r="19" cx="798" cy="708" fill="hsl(206, 50%, 50%)" opacity="0.62"></circle><circle r="16.5" cx="712" cy="27" stroke-width="2" stroke="hsl(210, 50%, 50%)" fill="none" opacity="0.86"></circle><circle r="18.5" cx="646" cy="265" fill="hsl(214, 50%, 50%)" opacity="0.53"></circle><circle r="18.5" cx="817" cy="37" fill="hsl(211, 50%, 50%)" opacity="0.91"></circle><circle r="12.5" cx="1207" cy="404" stroke-width="2" stroke="hsl(66, 50%, 50%)" fill="none" opacity="0.98"></circle><circle r="19" cx="535" cy="284" fill="hsl(195, 50%, 50%)" opacity="0.52"></circle><circle r="17.5" cx="942" cy="29" stroke-width="2" stroke="hsl(188, 50%, 50%)" fill="none" opacity="0.82"></circle><circle r="14" cx="1151" cy="71" stroke-width="2" stroke="hsl(100, 50%, 50%)" fill="none" opacity="0.67"></circle><circle r="17" cx="212" cy="505" fill="hsl(127, 50%, 50%)" opacity="0.35"></circle><circle r="17" cx="509" cy="524" stroke-width="2" stroke="hsl(182, 50%, 50%)" fill="none" opacity="0.85"></circle><circle r="13" cx="1182" cy="197" stroke-width="2" stroke="hsl(72, 50%, 50%)" fill="none" opacity="0.38"></circle><circle r="15.5" cx="151" cy="771" fill="hsl(146, 50%, 50%)" opacity="0.66"></circle><circle r="10" cx="135" cy="85" fill="hsl(96, 50%, 50%)" opacity="0.42"></circle><circle r="16.5" cx="1078" cy="92" fill="hsl(124, 50%, 50%)" opacity="0.30"></circle><circle r="17" cx="823" cy="619" fill="hsl(196, 50%, 50%)" opacity="0.85"></circle><circle r="14" cx="1088" cy="161" stroke-width="2" stroke="hsl(111, 50%, 50%)" fill="none" opacity="0.13"></circle><circle r="12.5" cx="1071" cy="638" stroke-width="2" stroke="hsl(108, 50%, 50%)" fill="none" opacity="0.40"></circle><circle r="14" cx="267" cy="147" fill="hsl(102, 50%, 50%)" opacity="0.60"></circle></svg>